<?xml version="1.0" encoding="utf-8"?>
<!-- Generator: Adobe Illustrator 28.1.0, SVG Export Plug-In . SVG Version: 6.00 Build 0)  -->
<svg version="1.1" xmlns="http://www.w3.org/2000/svg" xmlns:xlink="http://www.w3.org/1999/xlink" x="0px" y="0px"
	 viewBox="0 0 1211.5 294" style="enable-background:new 0 0 1211.5 294;" xml:space="preserve">
<style type="text/css">
	.st0{fill:url(#SVGID_1_);}
	.st1{fill:#FFFFFF;}
	.st2{fill:#29A3DA;}
	.st3{fill:url(#SVGID_00000014610475157317280160000013098367024025656224_);}
	.st4{fill:url(#SVGID_00000075866023599481125560000015148958770032448150_);}
</style>
<g id="Content">
</g>
<g id="wordmark">
</g>
<g id="Infinity_mark">
	
		<radialGradient id="SVGID_1_" cx="1554.85" cy="-2190.0713" r="745.4175" gradientTransform="matrix(-1 0 0 -1 2163.5085 -1397.3539)" gradientUnits="userSpaceOnUse">
		<stop  offset="0.3366" style="stop-color:#3B00B1"/>
		<stop  offset="1" style="stop-color:#1E005D"/>
	</radialGradient>
	<path class="st0" d="M1190.4,294L21.1,294C9.4,294,0,284.4,0,272.6V21.4C0,9.6,9.4,0,21.1,0l1169.3,0c11.6,0,21.1,9.6,21.1,21.4
		v251.1C1211.5,284.4,1202.1,294,1190.4,294z"/>
	<g>
		<path class="st1" d="M438.2,126V95.8h-10.4v-4.6c5.9-0.1,10-3.4,11-8.1h5.7V126H438.2z"/>
		<path class="st1" d="M456.7,89.1c2.8-4.2,7.1-6.9,13.1-6.9c6.1,0,10.4,2.7,13.1,6.9c2.8,4.2,3.8,9.6,3.8,15.5
			c0,5.9-1,11.3-3.8,15.5c-2.8,4.2-7.1,6.9-13.1,6.9c-6.1,0-10.4-2.7-13.1-6.9c-2.8-4.2-3.8-9.6-3.8-15.5
			C452.8,98.7,453.8,93.3,456.7,89.1z M463,118.5c1.6,1.7,3.8,2.8,6.8,2.8c3,0,5.1-1.1,6.8-2.8c2.6-2.7,3.8-7.3,3.8-13.9
			c0-6.5-1.2-11.2-3.8-13.9c-1.6-1.7-3.8-2.8-6.8-2.8c-3,0-5.2,1.1-6.8,2.8c-2.6,2.7-3.8,7.3-3.8,13.9
			C459.2,111.1,460.4,115.8,463,118.5z"/>
		<path class="st1" d="M497.6,89.1c2.8-4.2,7.1-6.9,13.1-6.9c6.1,0,10.4,2.7,13.1,6.9c2.8,4.2,3.8,9.6,3.8,15.5
			c0,5.9-1,11.3-3.8,15.5c-2.8,4.2-7.1,6.9-13.1,6.9c-6.1,0-10.4-2.7-13.1-6.9c-2.8-4.2-3.8-9.6-3.8-15.5
			C493.7,98.7,494.7,93.3,497.6,89.1z M503.9,118.5c1.6,1.7,3.8,2.8,6.8,2.8c3,0,5.1-1.1,6.8-2.8c2.6-2.7,3.8-7.3,3.8-13.9
			c0-6.5-1.2-11.2-3.8-13.9c-1.6-1.7-3.8-2.8-6.8-2.8c-3,0-5.2,1.1-6.8,2.8c-2.6,2.7-3.8,7.3-3.8,13.9
			C500.2,111.1,501.3,115.8,503.9,118.5z"/>
		<path class="st1" d="M543.9,82.8c5.7,0,10.6,4.6,10.6,10.4c0,5.9-5,10.4-10.6,10.4c-5.7,0-10.6-4.6-10.6-10.4
			C533.3,87.3,538.2,82.8,543.9,82.8z M538.6,126l30.8-42.8h5.9L544.7,126H538.6z M543.9,98.3c2.9,0,5.1-2.2,5.1-5.2
			c0-3-2.2-5.1-5.1-5.1c-2.8,0-5.1,2.2-5.1,5.1C538.8,96.2,541.1,98.3,543.9,98.3z M570,105.7c5.7,0,10.6,4.6,10.6,10.4
			c0,5.9-4.9,10.4-10.6,10.4c-5.7,0-10.6-4.6-10.6-10.4C559.5,110.3,564.4,105.7,570,105.7z M570,121.3c2.9,0,5.1-2.2,5.1-5.2
			c0-3-2.2-5.1-5.1-5.1c-2.8,0-5.1,2.2-5.1,5.1C565,119.1,567.2,121.3,570,121.3z"/>
		<path class="st1" d="M634.9,110.1c0,9.7-6.7,16.9-16.2,16.9c-9.5,0-16.2-7.2-16.2-16.9c0-9.6,6.7-16.8,16.2-16.8
			C628.1,93.3,634.9,100.5,634.9,110.1z M628.5,110.1c0-7.3-4.6-11.3-9.9-11.3c-5.3,0-9.9,4-9.9,11.3c0,7.4,4.6,11.4,9.9,11.4
			C623.9,121.4,628.5,117.5,628.5,110.1z"/>
		<path class="st1" d="M649,126h-6.2V94.2h6.1v4.6c2.3-4,6.1-5.5,9.8-5.5c7.6,0,11.4,5.5,11.4,12.5V126h-6.2v-19.1
			c0-4.4-1.8-8-7.4-8c-4.9,0-7.4,3.9-7.4,8.7V126z"/>
		<path class="st1" d="M679.1,109.8v-5.4H697v5.4H679.1z"/>
		<path class="st1" d="M710.6,110.1c0,7.3,4.6,11.2,9.7,11.2c5.9,0,8.1-4,8.8-6.5l5.5,2.4c-1.5,4.6-6.1,9.9-14.3,9.9
			c-9.2,0-16-7.3-16-16.9c0-9.9,6.9-16.8,16-16.8c8.4,0,12.8,5.3,14.1,10.1l-5.6,2.4c-0.8-3.1-3.1-6.7-8.5-6.7
			C715.2,99,710.6,102.7,710.6,110.1z"/>
		<path class="st1" d="M748.2,126H742V78.2h6.2v19.7c2.3-3.4,6-4.6,9.6-4.6c7.6,0,11.4,5.5,11.4,12.5V126H763v-19.1
			c0-4.4-1.8-8-7.4-8c-4.8,0-7.3,3.7-7.4,8.4V126z"/>
		<path class="st1" d="M786.4,107.8l8.6-1.3c1.9-0.3,2.4-1.3,2.4-2.4c0-3.1-2-5.7-6.9-5.7c-4.4,0-6.8,2.7-7.2,6.4l-5.9-1.4
			c0.7-6.1,6.1-10.3,13-10.3c9.5,0,13.2,5.4,13.2,11.6v15.9c0,2.8,0.3,4.4,0.4,5.2h-6.1c-0.1-0.8-0.3-2-0.3-4.3
			c-1.4,2.2-4.6,5.3-10.2,5.3c-6.5,0-10.6-4.5-10.6-9.5C776.8,111.8,780.9,108.6,786.4,107.8z M797.4,112.4v-1.5l-9.7,1.5
			c-2.6,0.4-4.6,1.9-4.6,4.8c0,2.4,2,4.6,5.2,4.6C793.3,121.8,797.4,119.3,797.4,112.4z"/>
		<path class="st1" d="M816.4,77.7c2.5,0,4.5,2,4.5,4.5c0,2.4-2,4.4-4.5,4.4c-2.4,0-4.4-2-4.4-4.4C812,79.7,814,77.7,816.4,77.7z
			 M813.4,126V94.2h6.1V126H813.4z"/>
		<path class="st1" d="M835.8,126h-6.2V94.2h6.1v4.6c2.3-4,6.1-5.5,9.8-5.5c7.6,0,11.4,5.5,11.4,12.5V126h-6.2v-19.1
			c0-4.4-1.8-8-7.4-8c-4.9,0-7.4,3.9-7.4,8.7V126z"/>
	</g>
	<g>
		<path class="st2" d="M332.6,196.6c-21.7,0-44.6-14.2-55.8-24.5c-12.3-11.3-46.1-47.9-46.2-48C208.4,99.4,178.7,72,149,72
			c-35.8,0-67,24.8-75.1,57.6c0.6-2.2,12-32.2,54.7-32.2c21.7,0,44.6,14.2,55.8,24.5c12.3,11.3,46.1,47.9,46.2,48
			c22.1,24.7,51.9,52.1,81.6,52.1c35.8,0,67-24.8,75.1-57.6C386.7,166.6,375.3,196.6,332.6,196.6z"/>
		
			<linearGradient id="SVGID_00000024716179258187000980000014951611312180831877_" gradientUnits="userSpaceOnUse" x1="188.9854" y1="212.1877" x2="84.5134" y2="104.0038">
			<stop  offset="0.2195" style="stop-color:#E51E79"/>
			<stop  offset="0.892" style="stop-color:#522780"/>
		</linearGradient>
		<path style="fill:url(#SVGID_00000024716179258187000980000014951611312180831877_);" d="M230.6,169.9
			c-0.1-0.1-9.8-10.6-20.7-22.1c-5.9,7-14.4,16.5-24.1,25.1c-18.2,15.9-30,19.3-36.8,19.3c-25.5,0-46.3-20.2-46.3-45.1
			c0-24.7,20.8-44.9,46.3-45.1c0.9,0,2,0.1,3.4,0.3c-7.7-2.9-15.8-4.9-23.8-4.9c-42.7,0-54.1,30-54.7,32.2c0,0,0,0,0,0
			c-1.4,5.6-2.1,11.4-2.1,17.4c0,41.4,34.1,75,76.7,75c17.7,0,37.6-9.1,58.1-27c9.7-8.5,18.1-17.5,24.4-24.8
			C230.7,170.1,230.7,170,230.6,169.9z"/>
		
			<linearGradient id="SVGID_00000167377938452947989720000004089924007890761128_" gradientUnits="userSpaceOnUse" x1="2286.0349" y1="1537.2415" x2="2181.5627" y2="1429.0574" gradientTransform="matrix(-1 0 0 -1 2558.1394 1619.1173)">
			<stop  offset="0.21" style="stop-color:#E95A24"/>
			<stop  offset="0.6841" style="stop-color:#F3A83B"/>
		</linearGradient>
		<path style="fill:url(#SVGID_00000167377938452947989720000004089924007890761128_);" d="M230.6,124.1c0.1,0.1,9.8,10.6,20.7,22.1
			c5.9-7,14.4-16.5,24.1-25.1c18.2-15.9,30-19.3,36.8-19.3c25.5,0,46.3,20.2,46.3,45.1c0,24.7-20.8,44.9-46.3,45.1
			c-0.9,0-2-0.1-3.4-0.3c7.7,2.9,15.8,4.9,23.8,4.9c42.7,0,54.1-30,54.7-32.2c0,0,0,0,0,0c1.4-5.6,2.1-11.4,2.1-17.4
			c0-41.4-34.7-75-77.2-75c-17.7,0-37,9.1-57.5,27c-9.7,8.5-18.1,17.5-24.4,24.8C230.4,123.9,230.5,124,230.6,124.1z"/>
	</g>
	<g>
		<path class="st1" d="M431.5,202.9v-46h12.4v46H431.5z"/>
		<path class="st1" d="M482.1,202.9l-16-27.3v27.3h-12v-46h14l14.3,25v-25h12.1v46H482.1z"/>
		<path class="st1" d="M526.4,168.4v34.5h-12.2v-34.5H501v-11.5h38.7v11.5H526.4z"/>
		<path class="st1" d="M546.2,202.9v-46h29.4v10.5h-17.4v7.3h15.8v10.1h-15.8v7.4h17.5v10.7H546.2z"/>
		<path class="st1" d="M584.4,202.9v-46h19.4c9.3,0,15.4,6.2,15.4,14.8c0,6.2-3.4,10.8-8.5,12.8l8.7,18.4h-13.2l-7.3-16.7h-2.5v16.7
			H584.4z M601.6,176.9c3.6,0,5.5-2.1,5.5-5s-1.9-4.9-5.5-4.9h-5.1v9.9H601.6z"/>
		<path class="st1" d="M655.1,202.9l-16-27.3v27.3h-12v-46h14l14.3,25v-25h12.1v46H655.1z"/>
		<path class="st1" d="M677.8,202.9v-46h29.4v10.5h-17.4v7.3h15.8v10.1h-15.8v7.4h17.5v10.7H677.8z"/>
		<path class="st1" d="M739.7,168.4v34.5h-12.2v-34.5h-13.2v-11.5H753v11.5H739.7z"/>
		<path class="st1" d="M782.7,180c0,7.7,5.4,12.1,11,12.1c6.4,0,9.1-4,10.1-7.2l11.4,3.3c-1.8,6.8-7.9,15.8-21.5,15.8
			c-12.8,0-23.5-9.3-23.5-23.9c0-14.7,11-24.1,23.4-24.1c13.2,0,19.3,8,21.1,14.9l-11.2,3.8c-0.8-3-3.3-7.1-9.8-7.1
			C788.5,167.6,782.7,171.6,782.7,180z"/>
		<path class="st1" d="M842.7,156c12.6,0,23.6,9.1,23.6,24s-11,24-23.6,24s-23.6-9.1-23.6-24S830.1,156,842.7,156z M842.7,192.2
			c5.4,0,11.1-3.8,11.1-12.3c0-8.4-5.7-12.2-11.1-12.2c-5.4,0-11.1,3.8-11.1,12.2C831.7,188.4,837.4,192.2,842.7,192.2z"/>
		<path class="st1" d="M914.5,202.9v-28.5l-10.1,28.5h-9.6l-10-28.2v28.2h-11.5v-46h16.2l10.3,28l9.9-28h16.6v46H914.5z"/>
		<path class="st1" d="M948.5,187.2v15.7h-12.1v-46h18.4c9.6,0,16.2,6.3,16.2,15.2c0,9.1-6.6,15.1-16.2,15.1H948.5z M953.2,177.2
			c3.2,0,5.5-1.9,5.5-5c0-3.2-2.3-5.1-5.5-5.1h-4.7v10.1H953.2z"/>
		<path class="st1" d="M977.2,186.1v-29.1h12.1v28.7c0,4.5,2.3,6.9,6.4,6.9s6.3-2.4,6.3-6.9v-28.7h12.1v29.1
			c0,11.5-7.7,17.9-18.4,17.9S977.2,197.6,977.2,186.1z"/>
		<path class="st1" d="M1046.1,168.4v34.5h-12.2v-34.5h-13.2v-11.5h38.7v11.5H1046.1z"/>
		<path class="st1" d="M1065.8,202.9v-46h29.4v10.5h-17.4v7.3h15.8v10.1h-15.8v7.4h17.5v10.7H1065.8z"/>
		<path class="st1" d="M1104.5,202.9v-46h19.4c9.3,0,15.4,6.2,15.4,14.8c0,6.2-3.4,10.8-8.5,12.8l8.7,18.4h-13.2l-7.3-16.7h-2.5
			v16.7H1104.5z M1121.6,176.9c3.6,0,5.5-2.1,5.5-5s-1.9-4.9-5.5-4.9h-5.1v9.9H1121.6z"/>
	</g>
</g>
</svg>
