<?xml version="1.0" encoding="utf-8"?>
<svg viewBox="74.519 140.384 165.1781 74.5877" xmlns="http://www.w3.org/2000/svg">
  <defs>
    <linearGradient gradientUnits="userSpaceOnUse" x1="1351.61" y1="58.575" x2="1351.61" y2="1214.024" id="gradient-0" gradientTransform="matrix(0.003803, 0.999995, -1.531047, 0.005897, 2700.225098, -713.721558)">
      <stop offset="0" style="stop-color: rgb(100% 100% 0%)"/>
      <stop offset="1" style="stop-color: rgb(138, 43, 226);"/>
    </linearGradient>
  </defs>
  <path d="M 72.373 651.52 C 62.109 212.43 541.273 -95.97 961.843 145.03 C 1100.393 224.427 1218.013 342.02 1344.473 470.45 C 1350.222 476.289 1352.877 475.686 1358.258 470.262 C 1556.068 270.862 1842.478 -33.188 2243.658 85.102 C 2412.488 134.886 2529.808 244.422 2589.918 409.482 C 2791.078 961.892 2214.048 1419.282 1719.228 1116.072 C 1594.428 1039.606 1486.648 934.092 1359.248 804.342 C 1352.447 797.415 1349.38 798.396 1343.162 804.666 C 1198.422 950.626 1042.622 1109.276 850.182 1175.686 C 458.582 1310.836 83.172 1077.485 72.382 651.516 L 72.373 651.52 Z M 317.413 643.008 C 329.898 896.648 525.003 1014.888 732.883 969.928 C 912.533 931.071 1063.243 773.068 1191.603 641.118 C 1195.928 636.672 1193.503 634.867 1190.531 632.093 C 1079.041 528.023 970.171 400.913 832.951 335.493 C 567.011 208.713 316.521 394.642 317.411 643.013 L 317.413 643.008 Z M 2385.213 632.288 C 2377.31 387.168 2183.923 253.588 1961.083 305.858 C 1785.753 346.984 1635.923 504.238 1511.443 632.138 C 1507.125 636.575 1508.783 638.647 1512.322 641.949 C 1667.962 787.189 1851.622 1016.519 2099.762 974.719 C 2265.052 946.879 2385.582 802.909 2385.212 632.289 L 2385.213 632.288 Z" style="fill: url('#gradient-0');" transform="matrix(0.06455300748348236, 0, 0, 0.06455300748348237, 69.85757347871119, 136.60281179619196)">
    <animateTransform type="translate" additive="sum" attributeName="transform" values="0 0; 0 0" begin="0s" dur="2s" fill="freeze"/>
  </path>
</svg>