<?xml version="1.0" encoding="utf-8"?>
<svg viewBox="0 0 121.671 121.671" xmlns="http://www.w3.org/2000/svg">
  <g transform="matrix(1, 0, 0, 1, -60.994067286444874, -304.15633726766686)">
    <g transform="matrix(1.999984, 0, 0, 2, 0.000916, -243.341992)" style="">
      <g>
        <path style="stroke-width: 2.028px; fill: rgb(254, 235, 1); stroke: rgb(153, 0, 255);" d="M 60.868 285.308 C 75.425 285.308 84.524 301.032 77.245 313.613 C 69.966 326.193 51.768 326.193 44.489 313.613 C 42.585 310.321 41.72 306.532 42.011 302.742 C 42.872 292.958 51.025 285.421 60.868 285.308 Z"/>
        <path style="stroke-width: 2.028px; fill: rgb(254, 235, 1); stroke: rgb(153, 0, 255);" d="M 72.559 322.91 C 72.559 322.91 53.126 304.966 72.693 285.639" transform="matrix(-1, 0, 0, -1, 136.654006, 608.545997)"/>
        <path style="stroke-width: 2.028px; fill: rgb(254, 235, 1); stroke: rgb(153, 0, 255);" d="M 60.861 285.308 L 60.911 323.047"/>
        <path style="stroke-width: 2.028px; fill: rgb(254, 235, 1); stroke: rgb(153, 0, 255);" d="M 58.059 285.637 C 58.059 285.637 38.626 303.581 58.193 322.908"/>
        <path style="stroke-width: 2.028px; fill: rgb(254, 235, 1); stroke: rgb(153, 0, 255);" d="M 43.486 311.587 L 78.319 311.261"/>
        <path style="stroke-width: 2.028px; fill: rgb(254, 235, 1); stroke: rgb(153, 0, 255);" d="M 42.832 298.707 L 78.891 298.788"/>
      </g>
    </g>
    <path d="M 948.182 573.636 m -49.987 0 a 49.987 49.986 0 1 0 99.974 0 a 49.987 49.986 0 1 0 -99.974 0 Z M 948.182 573.636 m 0 0 a 0 0 0 0 1 0 0 a 0 0 0 0 1 0 0 Z" style="fill: none; stroke: rgb(255, 235, 0); stroke-width: 5px; stroke-linecap: round; stroke-linejoin: round; stroke-dasharray: 20, 25;" transform="matrix(1, -0.000005, 0.000005, 1, -826.129138, -208.639406)"/>
    <path d="M 1328.182 283.636 m -2.814 0 a 2.814 2.845 0 1 0 5.628 0 a 2.814 2.845 0 1 0 -5.628 0 Z M 1328.182 283.636 m 0 0 a 0 0 0 0 1 0 0 a 0 0 0 0 1 0 0 Z" style="" transform="matrix(1, 0.000001, -0.000001, 1, -1183.694402, 36.451869)"/>
    <path d="M 1071.818 781.818 m -4.751 0 a 4.751 4.751 0 1 0 9.502 0 a 4.751 4.751 0 1 0 -9.502 0 Z M 1071.818 781.818 m -1.462 0 a 1.462 1.462 0 0 1 2.924 0 a 1.462 1.462 0 0 1 -2.924 0 Z" style="fill: rgb(153, 0, 255);" transform="matrix(-0.053975, 0.998542, -0.998542, -0.053975, 982.997393, -708.019682)"/>
    <path d="M 1328.182 283.636 m -2.814 0 a 2.814 2.845 0 1 0 5.628 0 a 2.814 2.845 0 1 0 -5.628 0 Z M 1328.182 283.636 m 0 0 a 0 0 0 0 1 0 0 a 0 0 0 0 1 0 0 Z" style="" transform="matrix(1, 0.000001, -0.000001, 1, -1247.286198, 111.481191)"/>
    <path d="M 1071.818 781.818 m -4.751 0 a 4.751 4.751 0 1 0 9.502 0 a 4.751 4.751 0 1 0 -9.502 0 Z M 1071.818 781.818 m -1.462 0 a 1.462 1.462 0 0 1 2.924 0 a 1.462 1.462 0 0 1 -2.924 0 Z" style="fill: rgb(153, 0, 255);" transform="matrix(-0.053975, 0.998542, -0.998542, -0.053975, 919.405597, -632.990387)"/>
    <g>
      <path d="M 1328.182 283.636 m -2.814 0 a 2.814 2.845 0 1 0 5.628 0 a 2.814 2.845 0 1 0 -5.628 0 Z M 1328.182 283.636 m 0 0 a 0 0 0 0 1 0 0 a 0 0 0 0 1 0 0 Z" style="" transform="matrix(1, 0.000001, -0.000001, 1, -1255.123112, 69.282675)"/>
      <path d="M 1071.818 781.818 m -4.751 0 a 4.751 4.751 0 1 0 9.502 0 a 4.751 4.751 0 1 0 -9.502 0 Z M 1071.818 781.818 m -1.462 0 a 1.462 1.462 0 0 1 2.924 0 a 1.462 1.462 0 0 1 -2.924 0 Z" style="fill: rgb(153, 0, 255);" transform="matrix(-0.053975, 0.998542, -0.998542, -0.053975, 911.568745, -675.188872)"/>
    </g>
    <g transform="matrix(1, 0, 0, 1, 88.268225, 43.466651)">
      <path d="M 1328.182 283.636 m -2.814 0 a 2.814 2.845 0 1 0 5.628 0 a 2.814 2.845 0 1 0 -5.628 0 Z M 1328.182 283.636 m 0 0 a 0 0 0 0 1 0 0 a 0 0 0 0 1 0 0 Z" style="" transform="matrix(1, 0.000001, -0.000001, 1, -1255.123112, 69.282675)"/>
      <path d="M 1071.818 781.818 m -4.751 0 a 4.751 4.751 0 1 0 9.502 0 a 4.751 4.751 0 1 0 -9.502 0 Z M 1071.818 781.818 m -1.462 0 a 1.462 1.462 0 0 1 2.924 0 a 1.462 1.462 0 0 1 -2.924 0 Z" style="fill: rgb(153, 0, 255);" transform="matrix(-0.053975, 0.998542, -0.998542, -0.053975, 911.568745, -675.188872)"/>
    </g>
    <g transform="matrix(1, 0, 0, 1, 97.580725, 1.55962)">
      <path d="M 1328.182 283.636 m -2.814 0 a 2.814 2.845 0 1 0 5.628 0 a 2.814 2.845 0 1 0 -5.628 0 Z M 1328.182 283.636 m 0 0 a 0 0 0 0 1 0 0 a 0 0 0 0 1 0 0 Z" style="" transform="matrix(1, 0.000001, -0.000001, 1, -1255.123112, 69.282675)"/>
      <path d="M 1071.818 781.818 m -4.751 0 a 4.751 4.751 0 1 0 9.502 0 a 4.751 4.751 0 1 0 -9.502 0 Z M 1071.818 781.818 m -1.462 0 a 1.462 1.462 0 0 1 2.924 0 a 1.462 1.462 0 0 1 -2.924 0 Z" style="fill: rgb(153, 0, 255);" transform="matrix(-0.053975, 0.998542, -0.998542, -0.053975, 911.568745, -675.188872)"/>
    </g>
  </g>
</svg>